<?xml version="1.0" encoding="utf-8"?>
<!-- Generator: Adobe Illustrator 25.4.1, SVG Export Plug-In . SVG Version: 6.00 Build 0)  -->
<svg version="1.1" id="Camada_1" xmlns="http://www.w3.org/2000/svg" xmlns:xlink="http://www.w3.org/1999/xlink" x="0px" y="0px"
	 viewBox="0 0 199.74 51.52" style="enable-background:new 0 0 199.74 51.52;" xml:space="preserve">
<style type="text/css">
	.st0{fill:none;}
	.st1{fill:#BCBCBB;}
	.st2{fill:#56BBAB;}
	.st3{font-family:'MyriadPro-Regular';}
	.st4{font-size:38.2702px;}
</style>
<g>
	<rect x="5.46" class="st0" width="50.13" height="50.13"/>
</g>
<g>
	<path class="st1" d="M30.89,4.18c-11.73,0-21.25,9.36-21.25,20.89s9.52,20.89,21.25,20.89s21.25-9.36,21.25-20.89
		S42.62,4.18,30.89,4.18z M32.76,37.1v2.59h-3.72v-2.69c-1.57-0.38-5.08-1.61-6.42-6.18l3.51-1.4c0.13,0.46,1.23,4.37,5.1,4.37
		c1.98,0,4.21-1,4.21-3.36c0-2.01-1.49-3.05-4.85-4.24c-2.34-0.81-7.12-2.15-7.12-6.91c0-0.21,0.02-5.01,5.57-6.18v-2.63h3.72v2.59
		c3.91,0.67,5.33,3.74,5.65,4.66l-3.36,1.4c-0.23-0.73-1.25-2.8-4.04-2.8c-1.49,0-3.85,0.77-3.85,2.9c0,1.98,1.83,2.74,5.61,3.97
		c5.1,1.73,6.4,4.28,6.4,7.21C39.17,35.87,33.86,36.91,32.76,37.1z"/>
</g>
<text transform="matrix(1 0 0 1 55.0283 37.9173)" class="st2 st3 st4">ConsultS</text>
<g>
	<rect x="3.46" y="-0.85" class="st0" width="50.98" height="50.98"/>
</g>
<g>
	<path class="st2" d="M27.42,3.39c-11.73,0-21.24,9.52-21.24,21.24s9.52,21.24,21.24,21.24s21.24-9.52,21.24-21.24
		S39.15,3.39,27.42,3.39z M29.29,36.87v2.63h-3.72v-2.74c-1.57-0.38-5.08-1.64-6.42-6.29l3.5-1.42c0.13,0.47,1.23,4.44,5.1,4.44
		c1.98,0,4.21-1.02,4.21-3.42c0-2.04-1.49-3.1-4.84-4.31c-2.34-0.83-7.12-2.19-7.12-7.03c0-0.21,0.02-5.1,5.57-6.29V9.77h3.72v2.63
		c3.91,0.68,5.33,3.8,5.65,4.74l-3.36,1.42c-0.23-0.74-1.25-2.85-4.04-2.85c-1.49,0-3.84,0.79-3.84,2.95c0,2.02,1.83,2.78,5.61,4.04
		c5.1,1.76,6.39,4.35,6.39,7.33C35.71,35.62,30.4,36.68,29.29,36.87z"/>
</g>
</svg>
